{"accessors" : [{"bufferView" : 0, "byteOffset" : 0, "componentType" : 5123, "count" : 30810, "type" : "SCALAR", "max" : [30809], "min" : [0]}, {"bufferView" : 1, "byteOffset" : 0, "componentType" : 5126, "count" : 30810, "type" : "VEC3", "max" : [0.2675600051879883, 1.1832679510116577, 0.350739985704422], "min" : [-0.33192500472068787, 0.001964000053703785, -2.426527976989746], "name" : "POSITION"}, {"bufferView" : 1, "byteOffset" : 12, "componentType" : 5126, "count" : 30810, "type" : "VEC3", "max" : [1.0000044107437134, 1.0000044107437134, 1.0000044107437134], "min" : [-1.0000044107437134, -1.0000044107437134, -1.0000044107437134], "name" : "NORMAL"}, {"bufferView" : 1, "byteOffset" : 24, "componentType" : 5126, "count" : 30810, "type" : "VEC2", "max" : [0.8855119943618774, -0.3568139970302582], "min" : [0.11319600045681, -0.8833249807357788], "name" : "TEXCOORD_0"}], "asset" : {"generator" : "Aspose.3D 21.11", "version" : "2.0"}, "buffers" : [{"uri" : "data:application/octet-stream;base64,", "byteLength" : 1047548}], "bufferViews" : [{"buffer" : 0, "byteOffset" : 0, "byteLength" : 61620, "target" : 34963}, {"buffer" : 0, "byteOffset" : 61624, "byteLength" : 985920, "byteStride" : 32, "target" : 34962}], "materials" : [{"name" : "", "pbrMetallicRoughness" : {"baseColorFactor" : [0.08300000429153442, 0.19524061679840088, 1, 1], "metallicFactor" : 0, "roughnessFactor" : 0}, "emissiveFactor" : [0, 0, 0], "alphaMode" : "OPAQUE", "doubleSided" : false}], "meshes" : [{"primitives" : [{"attributes" : {"POSITION" : 1, "NORMAL" : 2, "TEXCOORD_0" : 3}, "indices" : 0, "material" : 0, "mode" : 4}], "name" : ""}], "nodes" : [{"mesh" : 0, "name" : "Kids:Mesh"}, {"children" : [0], "matrix" : [-0.2791643247573589, 0, 0.7459613083864043, 0, 0, 0.7964866564022203, 0, 0, -0.7459613083864043, 0, -0.2791643247573589, 0, -1.2124530962435056, 0, 0.8860144414821687, 1], "name" : "group1"}, {"children" : [1], "name" : "group2"}], "scene" : 0, "scenes" : [{"nodes" : [2]}]}